<?xml version="1.0" encoding="utf-8"?>
<!-- Generator: Adobe Illustrator 21.0.2, SVG Export Plug-In . SVG Version: 6.00 Build 0)  -->
<svg version="1.1" id="Layer_1" xmlns="http://www.w3.org/2000/svg" xmlns:xlink="http://www.w3.org/1999/xlink" x="0px" y="0px"
	 viewBox="0 0 1000 700" style="enable-background:new 0 0 1000 700;" xml:space="preserve">
<g>
	<g>
		<g>
			<g>
				<path style="fill:#FFFFFF;" d="M319.7,626.5c27.4,0,54.9,0,82.3,0c3.9,0,7.8,0,11.7,0c1.3,0,1.3-1.7,0-1.7
					c-27.4,0-54.9,0-82.3,0c-3.9,0-7.8,0-11.7,0C318.4,624.8,318.4,626.5,319.7,626.5L319.7,626.5z"/>
			</g>
		</g>
	</g>
	<g>
		<g>
			<g>
				<path style="fill:#FFFFFF;" d="M150.1,626.3c40.8,0,81.7,0,122.5,0c5.9,0,11.8,0,17.7,0c1.5,0,1.5-1.2,0-1.2
					c-40.8,0-81.7,0-122.5,0c-5.9,0-11.8,0-17.7,0C148.5,625,148.5,626.3,150.1,626.3L150.1,626.3z"/>
			</g>
		</g>
	</g>
	<g>
		<g>
			<path style="fill:#FFFFFF;" d="M237.4,603.1c-0.3,7.4-6,13.6-13.6,13.6c-7.4,0-13.6-6.2-13.6-13.6c0-7.2,5.9-13.3,13.1-13.6
				C231,589.2,237.1,595.6,237.4,603.1c0,1.1,1.7,1.1,1.7,0c-0.3-8.3-6.7-15.3-15.3-15.3c-8.3,0-15.3,7-15.3,15.3
				c0,8.3,7,15.3,15.3,15.3c8.6,0,15-7,15.3-15.3C239.1,602.1,237.4,602.1,237.4,603.1z"/>
		</g>
	</g>
	<g>
		<g>
			<path style="fill:#FFFFFF;" d="M150.5,626.1c11.4-7.8,7.8-26.8-6.7-28.1c-6.4-0.6-12.8,3.2-15.5,9c-3.1,7-0.3,14.9,5.8,19.1
				c0.9,0.6,1.7-0.8,0.9-1.5c-11.5-8-5.3-26.3,8.8-25c12.7,1.2,15.9,18.1,5.9,25C148.7,625.3,149.6,626.7,150.5,626.1L150.5,626.1z"
				/>
		</g>
	</g>
	<g>
		<g>
			<path style="fill:#FFFFFF;" d="M400.1,626.6c-0.3,7.4-6,13.6-13.6,13.6c-7.4,0-13.6-6.2-13.6-13.6c0-7.2,5.9-13.3,13.1-13.6
				C393.8,612.7,399.9,619,400.1,626.6c0,1.1,1.7,1.1,1.7,0c-0.3-8.3-6.7-15.3-15.3-15.3c-8.3,0-15.3,7-15.3,15.3
				c0,8.3,7,15.3,15.3,15.3c8.6,0,15-7,15.3-15.3C401.9,625.5,400.2,625.5,400.1,626.6z"/>
		</g>
	</g>
	<g>
		<g>
			<path style="fill:#FFFFFF;" d="M291.5,625.7c0.3-7.4,6-13.6,13.6-13.6c7.6,0,13.4,6.2,13.6,13.6c0,1.1,1.7,1.1,1.7,0
				c-0.3-8.3-6.8-15.3-15.3-15.3c-8.6,0-15,7-15.3,15.3C289.8,626.8,291.5,626.8,291.5,625.7L291.5,625.7z"/>
		</g>
	</g>
	<g>
		<g>
			<path style="fill:#FFFFFF;" d="M492,629.7c9.9-16.9,34.2-16.8,44,0.2c0.5,0.8,1.8,0.1,1.3-0.8c-10.3-17.9-36-18-46.5-0.2
				C490.2,629.8,491.5,630.5,492,629.7L492,629.7z"/>
		</g>
	</g>
	<g>
		<g>
			<g>
				<path style="fill:#FFFFFF;" d="M134.9,624.8c-8.2,0-24.5,0-32.6,0c-1.1,0-1.1,1.7,0,1.7c8.2,0,24.5,0,32.6,0
					C135.9,626.5,135.9,624.8,134.9,624.8L134.9,624.8z"/>
			</g>
		</g>
	</g>
	<g>
		<path style="fill:#FFFFFF;" d="M201.4,657.3L201.4,657.3c0.3-0.4,0.8-0.6,1.5-0.6c1.2,0,2.1,0.8,2.1,1.9c0,1.1-0.9,2-2.1,2
			c-1.2,0-2.1-0.9-2.1-2c0-0.7,0.2-1.2,0.7-1.8l1.6-2.1h0.4L201.4,657.3z M204.6,658.6c0-1-0.7-1.6-1.8-1.6c-1.1,0-1.8,0.7-1.8,1.6
			c0,1,0.7,1.7,1.8,1.7C203.8,660.2,204.6,659.6,204.6,658.6z"/>
		<path style="fill:#FFFFFF;" d="M212.2,658.6H209l-0.8,1.8h-0.3l2.6-5.8h0.3l2.6,5.8H213L212.2,658.6z M212.1,658.3l-1.2-2.7
			c-0.1-0.3-0.3-0.6-0.3-0.6h0c0,0-0.1,0.3-0.3,0.6l-1.2,2.7H212.1z"/>
		<path style="fill:#FFFFFF;" d="M219.7,654.7v5.8h-0.3v-3.2c0-0.7,0-2,0-2h0c0,0-0.2,0.4-0.5,0.9l-1.7,2.9H217l-1.7-2.9
			c-0.3-0.5-0.5-0.9-0.5-0.9h0c0,0,0,1.4,0,2v3.2h-0.3v-5.8h0.3l1.6,2.8c0.5,0.9,0.6,1.2,0.6,1.2h0c0,0,0.1-0.3,0.7-1.2l1.6-2.8
			H219.7z"/>
		<path style="fill:#FFFFFF;" d="M226.2,654.7v5.8h-1.4v-2.8c0-0.4,0-1,0-1h0c0,0-0.2,0.3-0.5,0.5l-0.3,0.3l-0.8-0.8l2-2H226.2z"/>
		<path style="fill:#FFFFFF;" d="M227.5,656.1c0.3-0.9,1-1.6,2.2-1.6c1.3,0,2.1,0.8,2.1,1.9c0,1.1-0.7,1.6-1.5,2.1
			c-0.5,0.3-1,0.7-1,0.7l0,0c0,0,0.6,0,1.4,0h1v1.3h-4.2v-1.1c0.8-0.7,1.6-1.4,2.4-2.1c0.3-0.3,0.5-0.5,0.5-0.8
			c0-0.3-0.3-0.7-0.7-0.7c-0.5,0-0.8,0.4-0.9,0.7L227.5,656.1z"/>
		<path style="fill:#FFFFFF;" d="M237.4,654.7c1.4,0,2.3,0.7,2.3,2s-0.9,2-2.3,2h-0.8v1.8h-1.4v-5.8H237.4z M237.4,657.3
			c0.5,0,0.9-0.3,0.9-0.7s-0.3-0.7-0.9-0.7h-0.8v1.4H237.4z"/>
		<path style="fill:#FFFFFF;" d="M246.4,654.7v5.8H245V659c0-1.4,0-2,0-2h0c0,0-0.5,0.8-0.5,0.9l-0.7,1.2h-0.7l-0.7-1.2
			c0-0.1-0.5-0.9-0.5-0.9h0c0,0,0,0.7,0,2v1.4h-1.4v-5.8h1.3l1.1,1.7c0.4,0.7,0.5,0.8,0.5,0.8h0c0,0,0.1-0.1,0.5-0.8l1.1-1.7H246.4z
			"/>
	</g>
	<g>
		<path style="fill:#FFFFFF;" d="M285.1,654.7v5.8h-0.3v-4.5c0-0.4,0-0.8,0-0.8h0c0,0-0.3,0.4-0.4,0.5l-1,1l-0.2-0.2l1.7-1.7H285.1z
			"/>
		<path style="fill:#FFFFFF;" d="M286.5,656c0.3-1.1,1.1-1.5,2.1-1.5c1.1,0,1.9,0.8,1.9,1.8c0,1.2-0.9,1.8-1.6,2.3
			c-0.8,0.6-1.9,1.5-1.9,1.5l0,0c0,0,0.3,0,0.9,0h2.6v0.3h-3.9v-0.3c0.9-0.8,1.8-1.5,2.8-2.3c0.4-0.4,0.8-0.9,0.8-1.6
			c0-0.9-0.7-1.5-1.6-1.5c-0.9,0-1.5,0.5-1.8,1.3L286.5,656z"/>
		<path style="fill:#FFFFFF;" d="M295.6,654.7c1.3,0,2.1,0.7,2.1,1.8c0,1.1-0.8,1.8-2.1,1.8h-1.2v2.2H294v-5.8H295.6z M295.6,657.9
			c1.1,0,1.8-0.6,1.8-1.5c0-1-0.7-1.5-1.8-1.5h-1.2v2.9H295.6z"/>
		<path style="fill:#FFFFFF;" d="M304.1,654.7v5.8h-0.3v-3.2c0-0.7,0-2,0-2h0c0,0-0.2,0.4-0.5,0.9l-1.7,2.9h-0.2l-1.7-2.9
			c-0.3-0.5-0.5-0.9-0.5-0.9h0c0,0,0,1.4,0,2v3.2H299v-5.8h0.3l1.6,2.8c0.5,0.9,0.6,1.2,0.6,1.2h0c0,0,0.1-0.3,0.7-1.2l1.6-2.8
			H304.1z"/>
		<path style="fill:#FFFFFF;" d="M309.8,656.7L309.8,656.7c0.1,0,0.2-0.1,0.5-0.1c1.2,0,1.9,0.9,1.9,2c0,1.2-1,2-2.3,2
			c-1.2,0-2.3-0.8-2.3-2c0-0.9,0.4-1.6,1-2.4l1.1-1.5h1.5L309.8,656.7z M310.9,658.5c0-0.5-0.4-0.8-0.9-0.8c-0.5,0-0.9,0.3-0.9,0.8
			c0,0.5,0.4,0.8,0.9,0.8C310.6,659.3,310.9,659,310.9,658.5z"/>
		<path style="fill:#FFFFFF;" d="M317.7,654.7c1.4,0,2.3,0.7,2.3,2s-0.9,2-2.3,2h-0.8v1.8h-1.4v-5.8H317.7z M317.7,657.3
			c0.5,0,0.9-0.3,0.9-0.7s-0.3-0.7-0.9-0.7h-0.8v1.4H317.7z"/>
		<path style="fill:#FFFFFF;" d="M326.7,654.7v5.8h-1.4V659c0-1.4,0-2,0-2h0c0,0-0.5,0.8-0.5,0.9l-0.7,1.2h-0.7l-0.7-1.2
			c0-0.1-0.5-0.9-0.5-0.9h0c0,0,0,0.7,0,2v1.4h-1.4v-5.8h1.3l1.1,1.7c0.4,0.7,0.5,0.8,0.5,0.8h0c0,0,0.1-0.1,0.5-0.8l1.1-1.7H326.7z
			"/>
	</g>
	<g>
		<path style="fill:#FFFFFF;" d="M364.3,657.3L364.3,657.3c0.3-0.4,0.8-0.6,1.5-0.6c1.2,0,2.1,0.8,2.1,1.9c0,1.1-0.9,2-2.1,2
			c-1.2,0-2.1-0.9-2.1-2c0-0.7,0.2-1.2,0.7-1.8l1.6-2.1h0.4L364.3,657.3z M367.5,658.6c0-1-0.7-1.6-1.8-1.6c-1.1,0-1.8,0.7-1.8,1.6
			c0,1,0.7,1.7,1.8,1.7C366.8,660.2,367.5,659.6,367.5,658.6z"/>
		<path style="fill:#FFFFFF;" d="M373,654.7c1.3,0,2.1,0.7,2.1,1.8c0,1.1-0.8,1.8-2.1,1.8h-1.2v2.2h-0.3v-5.8H373z M373,657.9
			c1.1,0,1.8-0.6,1.8-1.5c0-1-0.7-1.5-1.8-1.5h-1.2v2.9H373z"/>
		<path style="fill:#FFFFFF;" d="M381.5,654.7v5.8h-0.3v-3.2c0-0.7,0-2,0-2h0c0,0-0.2,0.4-0.5,0.9L379,659h-0.2l-1.7-2.9
			c-0.3-0.5-0.5-0.9-0.5-0.9h0c0,0,0,1.4,0,2v3.2h-0.3v-5.8h0.3l1.6,2.8c0.5,0.9,0.6,1.2,0.6,1.2h0c0,0,0.1-0.3,0.7-1.2l1.6-2.8
			H381.5z"/>
		<path style="fill:#FFFFFF;" d="M388.3,654.7v5.8h-1.4v-2.8c0-0.4,0-1,0-1h0c0,0-0.2,0.3-0.5,0.5l-0.3,0.3l-0.8-0.8l2-2H388.3z"/>
		<path style="fill:#FFFFFF;" d="M389.6,656.1c0.3-0.9,1-1.6,2.2-1.6c1.3,0,2.1,0.8,2.1,1.9c0,1.1-0.7,1.6-1.5,2.1
			c-0.5,0.3-1,0.7-1,0.7l0,0c0,0,0.6,0,1.4,0h1v1.3h-4.2v-1.1c0.8-0.7,1.6-1.4,2.4-2.1c0.3-0.3,0.5-0.5,0.5-0.8
			c0-0.3-0.3-0.7-0.7-0.7c-0.5,0-0.8,0.4-0.9,0.7L389.6,656.1z"/>
		<path style="fill:#FFFFFF;" d="M400.8,659.5h-2.3l-0.3,0.9h-1.5l2.3-5.8h1.3l2.3,5.8h-1.5L400.8,659.5z M400.3,658.3l-0.4-1.1
			c-0.1-0.3-0.3-0.9-0.3-0.9h0c0,0-0.2,0.5-0.3,0.9l-0.4,1.1H400.3z"/>
		<path style="fill:#FFFFFF;" d="M409,654.7v5.8h-1.4V659c0-1.4,0-2,0-2h0c0,0-0.5,0.8-0.5,0.9l-0.7,1.2h-0.7l-0.7-1.2
			c0-0.1-0.5-0.9-0.5-0.9h0c0,0,0,0.7,0,2v1.4h-1.4v-5.8h1.3l1.1,1.7c0.4,0.7,0.5,0.8,0.5,0.8h0c0,0,0.1-0.1,0.5-0.8l1.1-1.7H409z"
			/>
	</g>
	<g>
		<path style="fill:#FFFFFF;" d="M121.5,654.7v5.8h-0.3v-4.5c0-0.4,0-0.8,0-0.8h0c0,0-0.3,0.4-0.4,0.5l-1,1l-0.2-0.2l1.7-1.7H121.5z
			"/>
		<path style="fill:#FFFFFF;" d="M122.8,656c0.3-1.1,1.1-1.5,2.1-1.5c1.1,0,1.9,0.8,1.9,1.8c0,1.2-0.9,1.8-1.6,2.3
			c-0.8,0.6-1.9,1.5-1.9,1.5l0,0c0,0,0.3,0,0.9,0h2.6v0.3h-3.9v-0.3c0.9-0.8,1.8-1.5,2.8-2.3c0.4-0.4,0.8-0.9,0.8-1.6
			c0-0.9-0.7-1.5-1.6-1.5c-0.9,0-1.5,0.5-1.8,1.3L122.8,656z"/>
		<path style="fill:#FFFFFF;" d="M134.1,658.6h-3.2l-0.8,1.8h-0.3l2.6-5.8h0.3l2.6,5.8h-0.3L134.1,658.6z M134,658.3l-1.2-2.7
			c-0.1-0.3-0.3-0.6-0.3-0.6h0c0,0-0.1,0.3-0.3,0.6l-1.2,2.7H134z"/>
		<path style="fill:#FFFFFF;" d="M141.6,654.7v5.8h-0.3v-3.2c0-0.7,0-2,0-2h0c0,0-0.2,0.4-0.5,0.9l-1.7,2.9H139l-1.7-2.9
			c-0.3-0.5-0.5-0.9-0.5-0.9h0c0,0,0,1.4,0,2v3.2h-0.3v-5.8h0.3l1.6,2.8c0.5,0.9,0.6,1.2,0.6,1.2h0c0,0,0.1-0.3,0.7-1.2l1.6-2.8
			H141.6z"/>
		<path style="fill:#FFFFFF;" d="M147.3,656.7L147.3,656.7c0.1,0,0.2-0.1,0.5-0.1c1.2,0,1.9,0.9,1.9,2c0,1.2-1,2-2.3,2
			c-1.2,0-2.3-0.8-2.3-2c0-0.9,0.4-1.6,1-2.4l1.1-1.5h1.5L147.3,656.7z M148.4,658.5c0-0.5-0.4-0.8-0.9-0.8c-0.5,0-0.9,0.3-0.9,0.8
			c0,0.5,0.4,0.8,0.9,0.8C148,659.3,148.4,659,148.4,658.5z"/>
		<path style="fill:#FFFFFF;" d="M156.5,659.5h-2.3l-0.3,0.9h-1.5l2.3-5.8h1.3l2.3,5.8h-1.5L156.5,659.5z M156,658.3l-0.4-1.1
			c-0.1-0.3-0.3-0.9-0.3-0.9h0c0,0-0.2,0.5-0.3,0.9l-0.4,1.1H156z"/>
		<path style="fill:#FFFFFF;" d="M164.8,654.7v5.8h-1.4V659c0-1.4,0-2,0-2h0c0,0-0.5,0.8-0.5,0.9l-0.7,1.2h-0.7l-0.7-1.2
			c0-0.1-0.5-0.9-0.5-0.9h0c0,0,0,0.7,0,2v1.4H159v-5.8h1.3l1.1,1.7c0.4,0.7,0.5,0.8,0.5,0.8h0c0,0,0.1-0.1,0.5-0.8l1.1-1.7H164.8z"
			/>
	</g>
	<g>
		<path style="fill:#FFFFFF;" d="M494.1,654.5c1.7,0,3,1.3,3,3s-1.3,3-3,3c-1.7,0-3-1.3-3-3S492.4,654.5,494.1,654.5z M494.1,660.2
			c1.5,0,2.7-1.1,2.7-2.7c0-1.6-1.2-2.7-2.7-2.7c-1.5,0-2.7,1.1-2.7,2.7C491.4,659.1,492.6,660.2,494.1,660.2z"/>
		<path style="fill:#FFFFFF;" d="M502.9,654.6v3.5c0,1.6-0.8,2.4-2.3,2.4c-1.5,0-2.3-0.8-2.3-2.4v-3.5h0.3v3.5c0,1.4,0.7,2.1,2,2.1
			c1.3,0,2-0.7,2-2.1v-3.5H502.9z"/>
		<path style="fill:#FFFFFF;" d="M508.3,654.6v0.3h-2v5.5H506V655h-2v-0.3H508.3z"/>
		<path style="fill:#FFFFFF;" d="M514.2,659.4c-0.2,0.3-1,1.2-2.4,1.2c-1.7,0-3-1.3-3-3s1.3-3,3-3c1.2,0,2.1,0.6,2.6,1.5l-0.3,0.1
			c-0.5-0.8-1.3-1.3-2.3-1.3c-1.5,0-2.7,1.1-2.7,2.7c0,1.6,1.2,2.7,2.7,2.7c1.2,0,2.1-0.8,2.4-1.3v-1.1h-1.9v-0.3h2.2v2.9h-0.3
			C514.2,659.6,514.2,659.4,514.2,659.4L514.2,659.4z"/>
		<path style="fill:#FFFFFF;" d="M518.6,654.5c1.7,0,3,1.3,3,3s-1.3,3-3,3c-1.7,0-3-1.3-3-3S517,654.5,518.6,654.5z M518.6,660.2
			c1.5,0,2.7-1.1,2.7-2.7c0-1.6-1.2-2.7-2.7-2.7c-1.5,0-2.7,1.1-2.7,2.7C516,659.1,517.1,660.2,518.6,660.2z"/>
		<path style="fill:#FFFFFF;" d="M523,660.4v-5.8h0.3v5.8H523z"/>
		<path style="fill:#FFFFFF;" d="M529.7,654.6v5.8h-0.3l-3.3-4.4c-0.5-0.7-0.6-0.9-0.7-0.9h0c0,0,0,0.6,0,1.4v3.9h-0.3v-5.8h0.3
			l3.2,4.3c0.5,0.6,0.7,0.9,0.7,0.9h0c0,0,0-0.6,0-1.4v-3.9H529.7z"/>
		<path style="fill:#FFFFFF;" d="M536.4,659.4c-0.2,0.3-1,1.2-2.4,1.2c-1.7,0-3-1.3-3-3s1.3-3,3-3c1.2,0,2.1,0.6,2.6,1.5l-0.3,0.1
			c-0.5-0.8-1.3-1.3-2.3-1.3c-1.5,0-2.7,1.1-2.7,2.7c0,1.6,1.2,2.7,2.7,2.7c1.2,0,2.1-0.8,2.4-1.3v-1.1h-1.9v-0.3h2.2v2.9h-0.3
			C536.4,659.6,536.5,659.4,536.4,659.4L536.4,659.4z"/>
	</g>
	<g>
		<path style="fill:#FFFFFF;" d="M574.2,660.4v-5.8h0.3v5.8H574.2z"/>
		<path style="fill:#FFFFFF;" d="M580.9,654.7v5.8h-0.3l-3.3-4.4c-0.5-0.7-0.6-0.9-0.7-0.9h0c0,0,0,0.6,0,1.4v3.9h-0.3v-5.8h0.3
			l3.2,4.3c0.5,0.6,0.7,0.9,0.7,0.9h0c0,0,0-0.6,0-1.4v-3.9H580.9z"/>
		<path style="fill:#FFFFFF;" d="M587.6,656.1c-0.5-0.8-1.3-1.3-2.3-1.3c-1.5,0-2.7,1.1-2.7,2.7c0,1.6,1.2,2.7,2.7,2.7
			c1,0,1.9-0.6,2.4-1.4l0.3,0.1c-0.5,1-1.5,1.7-2.7,1.7c-1.7,0-3-1.3-3-3s1.3-3,3-3c1.1,0,2.1,0.6,2.6,1.5L587.6,656.1z"/>
		<path style="fill:#FFFFFF;" d="M591.9,654.5c1.7,0,3,1.3,3,3s-1.3,3-3,3c-1.7,0-3-1.3-3-3S590.2,654.5,591.9,654.5z M591.9,660.2
			c1.5,0,2.7-1.1,2.7-2.7c0-1.6-1.2-2.7-2.7-2.7c-1.5,0-2.7,1.1-2.7,2.7C589.2,659.1,590.4,660.2,591.9,660.2z"/>
		<path style="fill:#FFFFFF;" d="M601.4,654.7v5.8H601v-3.2c0-0.7,0-2,0-2h0c0,0-0.2,0.4-0.5,0.9l-1.7,2.9h-0.2l-1.7-2.9
			c-0.3-0.5-0.5-0.9-0.5-0.9h0c0,0,0,1.4,0,2v3.2h-0.3v-5.8h0.3l1.6,2.8c0.5,0.9,0.6,1.2,0.6,1.2h0c0,0,0.1-0.3,0.7-1.2l1.6-2.8
			H601.4z"/>
		<path style="fill:#FFFFFF;" d="M603.2,660.4v-5.8h0.3v5.8H603.2z"/>
		<path style="fill:#FFFFFF;" d="M609.9,654.7v5.8h-0.3l-3.3-4.4c-0.5-0.7-0.6-0.9-0.7-0.9h0c0,0,0,0.6,0,1.4v3.9h-0.3v-5.8h0.3
			l3.2,4.3c0.5,0.6,0.7,0.9,0.7,0.9h0c0,0,0-0.6,0-1.4v-3.9H609.9z"/>
		<path style="fill:#FFFFFF;" d="M616.7,659.4c-0.2,0.3-1,1.2-2.4,1.2c-1.7,0-3-1.3-3-3s1.3-3,3-3c1.2,0,2.1,0.6,2.6,1.5l-0.3,0.1
			c-0.5-0.8-1.3-1.3-2.3-1.3c-1.5,0-2.7,1.1-2.7,2.7c0,1.6,1.2,2.7,2.7,2.7c1.2,0,2.1-0.8,2.4-1.3v-1.1h-1.9v-0.3h2.2v2.9h-0.3
			C616.7,659.6,616.7,659.4,616.7,659.4L616.7,659.4z"/>
	</g>
	<g>
		<path style="fill:#FFFFFF;" d="M676.8,656.1c-0.5-0.8-1.3-1.3-2.3-1.3c-1.5,0-2.7,1.1-2.7,2.7c0,1.6,1.2,2.7,2.7,2.7
			c1,0,1.9-0.6,2.4-1.4l0.3,0.1c-0.5,1-1.5,1.7-2.7,1.7c-1.7,0-3-1.3-3-3s1.3-3,3-3c1.1,0,2.1,0.6,2.6,1.5L676.8,656.1z"/>
		<path style="fill:#FFFFFF;" d="M682,658.6h-3.2l-0.8,1.8h-0.3l2.6-5.8h0.3l2.6,5.8h-0.3L682,658.6z M681.9,658.3l-1.2-2.7
			c-0.1-0.3-0.3-0.6-0.3-0.6h0c0,0-0.1,0.3-0.3,0.6l-1.2,2.7H681.9z"/>
		<path style="fill:#FFFFFF;" d="M688,660.1v0.3h-3.6v-5.8h0.3v5.5H688z"/>
		<path style="fill:#FFFFFF;" d="M692.8,660.1v0.3h-3.6v-5.8h0.3v5.5H692.8z"/>
		<path style="fill:#FFFFFF;" d="M702.9,654.6l-2,5.8h-0.2l-1-3.2c-0.3-0.9-0.3-1.2-0.3-1.2h0c0,0-0.1,0.3-0.3,1.2l-1,3.2h-0.2
			l-2.1-5.8h0.3l1.6,4.5c0.2,0.5,0.2,0.8,0.3,0.8h0c0,0,0.1-0.3,0.2-0.8l1.1-3.6h0.2l1.1,3.6c0.1,0.5,0.2,0.8,0.2,0.8h0
			c0,0,0.1-0.3,0.2-0.8l1.6-4.5H702.9z"/>
		<path style="fill:#FFFFFF;" d="M704.1,660.4v-5.8h0.3v5.8H704.1z"/>
		<path style="fill:#FFFFFF;" d="M710,654.6v0.3h-2v5.5h-0.3V655h-2v-0.3H710z"/>
		<path style="fill:#FFFFFF;" d="M715.6,654.6v5.8h-0.3v-2.9h-3.7v2.9h-0.3v-5.8h0.3v2.6h3.7v-2.6H715.6z"/>
		<path style="fill:#FFFFFF;" d="M721.7,654.6c1,0,1.6,0.5,1.6,1.4c0,0.6-0.6,1.1-1.1,1.2v0c0.6,0,1.5,0.6,1.5,1.5
			c0,1-0.7,1.7-1.8,1.7h-2.2v-5.8H721.7z M721.7,657.1c0.8,0,1.4-0.5,1.4-1.1c0-0.7-0.5-1.1-1.4-1.1H720v2.2H721.7z M721.9,660.1
			c0.8,0,1.5-0.5,1.5-1.4c0-0.8-0.7-1.4-1.6-1.4H720v2.7H721.9z"/>
		<path style="fill:#FFFFFF;" d="M729.6,654.6v3.5c0,1.6-0.8,2.4-2.3,2.4c-1.5,0-2.3-0.8-2.3-2.4v-3.5h0.3v3.5c0,1.4,0.7,2.1,2,2.1
			c1.3,0,2-0.7,2-2.1v-3.5H729.6z"/>
		<path style="fill:#FFFFFF;" d="M733.6,654.6c1.7,0,3,1.2,3,2.9c0,1.7-1.3,2.9-2.9,2.9h-2.5v-5.8H733.6z M733.6,660.1
			c1.4,0,2.6-1,2.6-2.5c0-1.6-1.2-2.6-2.7-2.6h-2.1v5.2H733.6z"/>
		<path style="fill:#FFFFFF;" d="M740.3,654.6c1.7,0,3,1.2,3,2.9c0,1.7-1.3,2.9-2.9,2.9h-2.5v-5.8H740.3z M740.4,660.1
			c1.4,0,2.6-1,2.6-2.5c0-1.6-1.2-2.6-2.7-2.6h-2.1v5.2H740.4z"/>
		<path style="fill:#FFFFFF;" d="M748.4,654.6l-2.3,2.8v3h-0.3v-3l-2.3-2.8h0.4l1.7,2.1c0.1,0.2,0.4,0.5,0.4,0.5h0
			c0,0,0.2-0.3,0.4-0.5l1.6-2.1H748.4z"/>
	</g>
	<g>
		<path style="fill:#FFFFFF;" d="M814.5,654.8l-2,5.8h-0.2l-1-3.2c-0.3-0.9-0.3-1.2-0.3-1.2h0c0,0-0.1,0.3-0.3,1.2l-1,3.2h-0.2
			l-2.1-5.8h0.3l1.6,4.5c0.2,0.5,0.2,0.8,0.3,0.8h0c0,0,0.1-0.3,0.2-0.8l1.1-3.6h0.2l1.1,3.6c0.1,0.5,0.2,0.8,0.2,0.8h0
			c0,0,0.1-0.3,0.2-0.8l1.6-4.5H814.5z"/>
		<path style="fill:#FFFFFF;" d="M818,654.8c1.7,0,3,1.2,3,2.9c0,1.7-1.3,2.9-2.9,2.9h-2.5v-5.8H818z M818.1,660.2
			c1.4,0,2.6-1,2.6-2.5c0-1.6-1.2-2.6-2.7-2.6H816v5.2H818.1z"/>
	</g>
	<g>
		<path style="fill:#FFFFFF;" d="M883.6,654.8l-2,5.8h-0.2l-1-3.2c-0.3-0.9-0.3-1.2-0.3-1.2h0c0,0-0.1,0.3-0.3,1.2l-1,3.2h-0.2
			l-2.1-5.8h0.3l1.6,4.5c0.2,0.5,0.2,0.8,0.3,0.8h0c0,0,0.1-0.3,0.2-0.8l1.1-3.6h0.2l1.1,3.6c0.1,0.5,0.2,0.8,0.2,0.8h0
			c0,0,0.1-0.3,0.2-0.8l1.6-4.5H883.6z"/>
		<path style="fill:#FFFFFF;" d="M889.3,654.8v5.8H889l-3.3-4.4c-0.5-0.7-0.6-0.9-0.7-0.9h0c0,0,0,0.6,0,1.4v3.9h-0.3v-5.8h0.3
			l3.2,4.3c0.5,0.6,0.7,0.9,0.7,0.9h0c0,0,0-0.6,0-1.4v-3.9H889.3z"/>
	</g>
	<g>
		<circle style="fill:#FFFFFF;" cx="514" cy="616.2" r="5.2"/>
	</g>
	<g>
		<g>
			<path style="fill:#FFFFFF;" d="M573.4,629.7c9.9-16.9,34.2-16.8,44,0.2c0.5,0.8,1.8,0.1,1.3-0.8c-10.3-17.9-36-18-46.5-0.2
				C571.6,629.8,572.9,630.5,573.4,629.7L573.4,629.7z"/>
		</g>
	</g>
	<g>
		<circle style="fill:#FFFFFF;" cx="595.4" cy="628.8" r="5.2"/>
	</g>
	<g>
		<circle style="fill:#FFFFFF;" cx="709.8" cy="628.8" r="5.2"/>
	</g>
	<g>
		<g>
			<path style="fill:#FFFFFF;" d="M709.8,620.1c3.2,0,3.2-5,0-5C706.5,615.1,706.5,620.1,709.8,620.1L709.8,620.1z"/>
		</g>
	</g>
	<g>
		<g>
			<path style="fill:#FFFFFF;" d="M833.3,624.6c-12.6,0-25.1,0-37.7,0c-1,0-1,1.5,0,1.5c12.6,0,25.1,0,37.7,0
				C834.3,626.1,834.3,624.6,833.3,624.6L833.3,624.6z"/>
		</g>
	</g>
	<g>
		<g>
			<path style="fill:#FFFFFF;" d="M902.2,624.6c-12.6,0-25.1,0-37.7,0c-1,0-1,1.5,0,1.5c12.6,0,25.1,0,37.7,0
				C903.2,626.1,903.2,624.6,902.2,624.6L902.2,624.6z"/>
		</g>
	</g>
	<g>
		<g>
			<path style="fill:#FFFFFF;" d="M902.2,631.6c-12.6,0-25.1,0-37.7,0c-1,0-1,1.5,0,1.5c12.6,0,25.1,0,37.7,0
				C903.2,633.1,903.2,631.6,902.2,631.6L902.2,631.6z"/>
		</g>
	</g>
	<g>
		<path style="fill:#999999;" d="M816.1,681.4l-1.5-2.6c0,0-0.1,0-0.1,0h-1.2v2.6h-1.5v-7.7h2.7c1.9,0,3,1,3,2.6
			c0,1.1-0.5,1.8-1.5,2.2l1.8,2.9H816.1z M813.4,677.4h1.4c0.8,0,1.2-0.6,1.2-1.1c0-0.6-0.4-1.1-1.2-1.1h-1.4V677.4z"/>
		<path style="fill:#999999;" d="M824.4,680h-3.3l-0.6,1.5h-1.7l3.2-7.7h1.4l3.2,7.7H825L824.4,680z M823.9,678.6l-0.8-1.9
			c-0.2-0.4-0.4-1.1-0.4-1.1h0c0,0-0.2,0.6-0.4,1.1l-0.8,1.9H823.9z"/>
		<path style="fill:#999999;" d="M832.9,673.7v1.4h-2.4v6.3H829v-6.3h-2.4v-1.4H832.9z"/>
		<path style="fill:#999999;" d="M840,680v1.4h-5.5v-7.7h5.4v1.4h-3.9v1.6h3.1v1.3h-3.1v1.9H840z"/>
		<path style="fill:#999999;" d="M848.3,673.7c1.8,0,3,1,3,2.6c0,1.6-1.1,2.6-3,2.6h-1.2v2.5h-1.5v-7.7H848.3z M848.3,677.5
			c0.9,0,1.4-0.4,1.4-1.2c0-0.7-0.5-1.1-1.4-1.1h-1.2v2.3H848.3z"/>
		<path style="fill:#999999;" d="M858.4,680v1.4h-5.5v-7.7h5.4v1.4h-3.9v1.6h3.1v1.3h-3.1v1.9H858.4z"/>
		<path style="fill:#999999;" d="M864.9,681.4l-1.5-2.6c0,0-0.1,0-0.1,0h-1.2v2.6h-1.5v-7.7h2.7c1.9,0,3,1,3,2.6
			c0,1.1-0.5,1.8-1.5,2.2l1.8,2.9H864.9z M862.2,677.4h1.4c0.8,0,1.2-0.6,1.2-1.1c0-0.6-0.4-1.1-1.2-1.1h-1.4V677.4z"/>
		<path style="fill:#999999;" d="M868.5,681.4v-7.7h1.5v7.7H868.5z"/>
		<path style="fill:#999999;" d="M875.8,673.6c2.2,0,4,1.7,4,4s-1.8,4-4,4s-4-1.7-4-4S873.6,673.6,875.8,673.6z M875.8,680.1
			c1.4,0,2.4-1,2.4-2.5c0-1.5-1-2.5-2.4-2.5c-1.4,0-2.4,1-2.4,2.5C873.4,679.1,874.4,680.1,875.8,680.1z"/>
		<path style="fill:#999999;" d="M884.9,673.7c2.2,0,4,1.6,4,3.9c0,2.3-1.8,3.8-4,3.8h-3.3v-7.7H884.9z M885,680
			c1.3,0,2.4-0.9,2.4-2.4s-1.1-2.5-2.4-2.5h-1.8v4.8H885z"/>
	</g>
	<g>
		<path style="fill:#999999;" d="M546.4,673.7v1.4H544v6.3h-1.5v-6.3h-2.4v-1.4H546.4z"/>
		<path style="fill:#999999;" d="M555.1,673.7l-3,4.2v3.5h-1.5v-3.5l-3-4.2h1.7l1.6,2.2c0.2,0.3,0.4,0.6,0.4,0.6h0
			c0,0,0.2-0.3,0.4-0.6l1.6-2.2H555.1z"/>
		<path style="fill:#999999;" d="M559.3,673.7c1.8,0,3,1,3,2.6c0,1.6-1.1,2.6-3,2.6h-1.2v2.5h-1.5v-7.7H559.3z M559.3,677.5
			c0.9,0,1.4-0.4,1.4-1.2c0-0.7-0.5-1.1-1.4-1.1h-1.2v2.3H559.3z"/>
		<path style="fill:#999999;" d="M569.4,680v1.4h-5.5v-7.7h5.4v1.4h-3.9v1.6h3.1v1.3h-3.1v1.9H569.4z"/>
	</g>
	<g>
		<path style="fill:#999999;" d="M237.2,676.1c-0.4-0.4-1-0.7-1.6-0.7c-1.3,0-2.1,0.9-2.1,2.2c0,1.3,0.9,2.2,2.1,2.2
			c0.7,0,1.4-0.4,1.8-0.9l1.9,0.5c-0.6,1.4-2,2.3-3.6,2.3c-2.2,0-4-1.7-4-4s1.8-4,4-4c1.5,0,2.8,0.8,3.5,2L237.2,676.1z"/>
		<path style="fill:#999999;" d="M244.7,680.2h-3l-0.4,1.2h-2l3.1-7.7h1.7l3.1,7.7h-2L244.7,680.2z M244.2,678.6l-0.5-1.5
			c-0.2-0.4-0.4-1.1-0.4-1.1h0c0,0-0.2,0.7-0.4,1.1l-0.5,1.5H244.2z"/>
		<path style="fill:#999999;" d="M253.6,679.7v1.7h-5.5v-7.7h1.8v6H253.6z"/>
		<path style="fill:#999999;" d="M260.4,679.7v1.7h-5.5v-7.7h1.8v6H260.4z"/>
		<path style="fill:#999999;" d="M270.5,673.7v1.7h-2.3v6h-1.8v-6H264v-1.7H270.5z"/>
		<path style="fill:#999999;" d="M271.7,681.4v-7.7h1.8v7.7H271.7z"/>
		<path style="fill:#999999;" d="M283.2,673.7v7.7h-1.8v-1.9c0-1.8,0.1-2.7,0.1-2.7h0c0,0-0.6,1.1-0.7,1.2l-0.9,1.5h-1L278,678
			c-0.1-0.1-0.7-1.2-0.7-1.2h0c0,0,0.1,0.9,0.1,2.7v1.9h-1.8v-7.7h1.7l1.4,2.3c0.6,0.9,0.6,1.1,0.7,1.1h0c0,0,0.1-0.2,0.7-1.1
			l1.4-2.3H283.2z"/>
		<path style="fill:#999999;" d="M290.8,679.7v1.7h-5.6v-7.7h5.6v1.7H287v1.3h2.9v1.6H287v1.4H290.8z"/>
	</g>
</g>
<g>
	<path style="fill:#FFFFFF;" d="M82.3,48.3c-0.7,1-2.9,3.4-7,3.4c-4.8,0-8.7-3.7-8.7-8.7s3.9-8.7,8.7-8.7c3.6,0.1,6.2,1.8,7.6,4.4
		L82,38.9c-1.3-2.3-3.8-3.7-6.7-3.7c-4.3,0-7.8,3.1-7.8,7.8c0,4.6,3.4,7.8,7.8,7.8c3.6,0,6.2-2.2,7-3.8v-3.1h-5.5v-0.8h6.3v8.3h-0.9
		C82.3,49,82.3,48.3,82.3,48.3L82.3,48.3z"/>
	<path style="fill:#FFFFFF;" d="M99,46.1h-9.2l-2.4,5.3h-1L94,34.6h0.8l7.6,16.8h-1L99,46.1z M98.6,45.3l-3.5-7.8
		c-0.4-0.8-0.7-1.8-0.8-1.8h0c0,0-0.4,1-0.8,1.8l-3.5,7.8H98.6z"/>
	<path style="fill:#FFFFFF;" d="M116.9,50.5v0.9h-10.5V34.6h0.9v15.9H116.9z"/>
	<path style="fill:#FFFFFF;" d="M131.5,50.5v0.9H121V34.6h0.9v15.9H131.5z"/>
	<path style="fill:#FFFFFF;" d="M135.6,51.4V34.6h0.9v16.8H135.6z"/>
	<path style="fill:#FFFFFF;" d="M143.5,35.5v6.9h7.7v0.9h-7.7v8.2h-0.9V34.6H153v0.9H143.5z"/>
	<path style="fill:#FFFFFF;" d="M167.5,51.4l-4.2-6.8c-0.4,0.1-0.9,0.1-1.4,0.1h-3.6v6.7h-0.9V34.6h4.5c3.8,0,6.1,1.9,6.1,5.1
		c0,2.5-1.4,4.2-3.8,4.8l4.3,6.9H167.5z M162,43.9c3.3,0,5.1-1.7,5.1-4.2c0-2.8-2-4.2-5.1-4.2h-3.6v8.4H162z"/>
	<path style="fill:#FFFFFF;" d="M184.3,50.5v0.9h-10.8V34.6h10.7v0.9h-9.8v6.4h7.9v0.9h-7.9v7.8H184.3z"/>
	<path style="fill:#FFFFFF;" d="M201.4,34.6l-6.6,8.1v8.7h-0.9v-8.7l-6.6-8.1h1.1l4.8,6c0.4,0.5,1.1,1.4,1.1,1.4h0
		c0,0,0.7-0.9,1.1-1.4l4.8-6H201.4z"/>
	<path style="fill:#FFFFFF;" d="M213.4,46.1h-9.2l-2.4,5.3h-1l7.6-16.8h0.8l7.6,16.8h-1L213.4,46.1z M213,45.3l-3.5-7.8
		c-0.4-0.8-0.7-1.8-0.8-1.8h0c0,0-0.4,1-0.8,1.8l-3.5,7.8H213z"/>
	<path style="fill:#FFFFFF;" d="M233.9,34.6v16.8h-0.9l-9.5-12.7c-1.4-1.9-1.9-2.6-1.9-2.6h0c0,0,0,1.8,0,4v11.4h-0.9V34.6h0.9
		l9.4,12.6c1.4,1.8,1.9,2.6,2,2.6h0c0,0-0.1-1.9-0.1-4V34.6H233.9z"/>
	<path style="fill:#FFFFFF;" d="M250.6,39.8c-0.8-1-2.2-1.6-3.5-1.6c-2.8,0-4.5,2-4.5,4.8c0,2.9,1.9,4.7,4.5,4.7
		c1.6,0,3.1-0.8,3.8-2l4.1,1.1c-1.4,3-4.4,4.9-7.9,4.9c-4.8,0-8.7-3.7-8.7-8.7s3.9-8.7,8.7-8.7c3.3,0,6.1,1.8,7.6,4.5L250.6,39.8z"
		/>
	<path style="fill:#FFFFFF;" d="M267.9,48.8h-6.6l-1,2.6h-4.3l6.7-16.8h3.8l6.7,16.8h-4.3L267.9,48.8z M266.6,45.2l-1.2-3.3
		c-0.4-1-0.8-2.5-0.8-2.5h0c0,0-0.5,1.5-0.8,2.5l-1.2,3.3H266.6z"/>
	<path style="fill:#FFFFFF;" d="M287.7,47.6v3.8h-12V34.6h4v13H287.7z"/>
	<path style="fill:#FFFFFF;" d="M303.3,47.6v3.8h-12V34.6h4v13H303.3z"/>
	<path style="fill:#FFFFFF;" d="M315,39.9c-0.4-1.5-1.7-2.2-2.9-2.2s-1.9,0.6-1.9,1.3c0,1.1,1.7,1.5,3.7,2.3
		c2.5,0.9,5.1,2.3,5.1,5.2c0,3.1-2.6,5.3-6.6,5.3c-3.5,0-6-1.9-7.1-5.1l3.9-1c0.4,1.3,1.6,2.5,3.4,2.5c1.4,0,2.1-0.7,2.1-1.5
		c0-1.3-2-1.7-4.4-2.6c-2-0.8-4.3-1.9-4.3-4.8c0-2.6,2.6-5,6.3-5c3.2,0,5.8,2,6.6,4.6L315,39.9z"/>
</g>
</svg>
